<?xml version="1.0" standalone="no"?>
<!DOCTYPE svg PUBLIC "-//W3C//DTD SVG 20010904//EN"
 "http://www.w3.org/TR/2001/REC-SVG-20010904/DTD/svg10.dtd">
<svg version="1.0" xmlns="http://www.w3.org/2000/svg"
 width="278.000000pt" height="278.000000pt" viewBox="0 0 278.000000 278.000000"
 preserveAspectRatio="xMidYMid meet">
<metadata>
Created by potrace 1.11, written by Peter Selinger 2001-2013
</metadata>
<g transform="translate(0.000000,278.000000) scale(0.100000,-0.100000)"
fill="#000000" stroke="none">
<path d="M1070 2760 c-12 -12 -33 -20 -53 -20 -18 0 -42 -7 -53 -15 -10 -8
-27 -15 -36 -15 -10 0 -18 -4 -18 -10 0 -5 -16 -10 -35 -10 -22 0 -38 -6 -41
-15 -4 -8 -14 -15 -23 -15 -10 0 -28 -11 -41 -25 -13 -14 -32 -25 -42 -25 -10
0 -21 -7 -24 -15 -4 -8 -17 -15 -30 -15 -13 0 -24 -6 -24 -12 0 -14 -63 -68
-79 -68 -14 0 -124 -118 -134 -142 -4 -12 -13 -18 -22 -14 -10 3 -17 -3 -21
-18 -3 -13 -17 -34 -30 -47 -13 -12 -24 -30 -24 -40 0 -9 -7 -23 -16 -30 -22
-18 -64 -85 -64 -102 0 -7 -11 -24 -25 -37 -15 -14 -25 -35 -25 -51 0 -14 -7
-32 -15 -39 -8 -7 -15 -25 -15 -41 0 -16 -11 -47 -25 -69 -18 -28 -25 -54 -25
-88 0 -36 -5 -54 -20 -67 -19 -17 -20 -31 -20 -339 0 -310 1 -322 20 -334 15
-9 20 -23 20 -52 0 -22 4 -48 9 -58 20 -40 41 -94 41 -106 0 -8 7 -19 15 -26
8 -7 15 -23 15 -37 0 -13 16 -49 35 -79 19 -30 35 -56 35 -59 0 -6 42 -67 77
-112 17 -21 32 -43 34 -50 8 -22 198 -213 212 -213 8 0 33 -18 55 -40 22 -22
47 -40 56 -40 9 0 16 -4 16 -10 0 -5 7 -10 16 -10 9 0 32 -14 51 -31 21 -18
43 -29 53 -26 10 2 25 -4 35 -15 11 -13 25 -18 41 -15 13 2 29 -2 35 -9 6 -8
18 -14 25 -14 8 0 22 -4 32 -9 54 -27 102 -31 380 -31 183 0 293 4 297 10 3 5
17 10 31 10 23 0 33 3 81 28 13 7 33 12 46 12 13 0 32 9 41 19 11 12 25 17 37
14 14 -4 29 3 45 21 14 14 34 26 45 26 11 0 22 7 25 15 4 8 14 15 23 15 9 0
34 18 55 40 22 22 45 40 52 40 15 0 206 194 215 218 4 10 23 34 43 55 20 21
36 44 36 51 0 8 7 19 15 26 8 7 15 21 15 30 0 10 4 20 9 22 16 6 61 88 61 112
0 13 7 29 15 36 8 7 15 21 15 31 0 10 5 21 10 24 6 3 10 14 10 23 0 9 7 30 15
46 8 15 15 50 15 76 0 34 5 52 20 65 19 17 20 31 20 325 0 294 -1 308 -20 325
-15 13 -20 31 -20 69 0 29 -7 59 -15 70 -8 11 -15 27 -15 35 0 9 -11 39 -24
66 -35 72 -56 122 -56 133 0 5 -6 15 -14 21 -8 7 -27 37 -42 68 -16 31 -42 70
-58 87 -15 17 -31 38 -35 48 -8 21 -170 188 -183 188 -15 0 -78 54 -78 68 0 6
-11 12 -24 12 -13 0 -26 7 -30 15 -3 8 -14 15 -25 15 -10 0 -29 11 -42 25 -13
13 -31 25 -40 25 -9 0 -19 7 -23 15 -3 9 -19 15 -41 15 -19 0 -35 5 -35 10 0
6 -8 10 -17 10 -10 0 -27 7 -37 15 -11 8 -35 15 -53 15 -20 0 -41 8 -53 20
-19 19 -33 20 -320 20 -287 0 -301 -1 -320 -20z m379 -367 c17 -10 33 -25 36
-34 3 -9 14 -24 25 -34 11 -10 20 -25 20 -33 0 -9 6 -23 13 -31 16 -19 37 -89
37 -123 0 -14 7 -31 15 -38 8 -7 15 -18 15 -25 0 -7 -7 -18 -15 -25 -23 -19
-19 -82 8 -113 12 -15 30 -27 39 -27 9 0 18 -5 20 -10 2 -6 14 -12 27 -15 13
-2 34 -14 46 -25 12 -11 27 -20 33 -20 16 0 132 -110 132 -126 0 -7 11 -26 25
-42 14 -17 25 -36 25 -43 0 -7 10 -23 22 -36 20 -21 29 -23 138 -23 68 0 120
-4 127 -11 5 -5 21 -11 34 -13 38 -4 99 -27 99 -37 0 -5 8 -9 18 -9 25 0 89
-61 97 -93 4 -15 4 -38 1 -52 -8 -33 -76 -107 -91 -101 -7 2 -22 -6 -34 -20
-15 -17 -31 -24 -56 -24 -22 0 -38 -6 -41 -15 -5 -12 -31 -15 -145 -15 l-139
0 0 -24 c0 -13 -7 -29 -15 -36 -8 -7 -15 -20 -15 -30 0 -10 -7 -23 -15 -30 -8
-7 -15 -17 -15 -24 0 -18 -153 -166 -173 -166 -10 0 -20 -7 -23 -15 -4 -8 -16
-15 -29 -15 -46 0 -60 -33 -63 -149 -2 -58 -8 -110 -13 -115 -5 -6 -9 -29 -9
-52 0 -24 -4 -46 -10 -49 -5 -3 -14 -25 -21 -48 -8 -31 -27 -58 -71 -99 -32
-32 -66 -58 -74 -58 -9 0 -30 11 -48 25 -18 14 -35 22 -39 19 -3 -3 -12 7 -21
23 -8 16 -22 36 -31 43 -20 17 -45 75 -45 105 0 12 -7 28 -15 35 -12 10 -15
40 -15 148 0 112 -3 139 -17 154 -9 10 -24 18 -34 18 -10 0 -30 11 -45 25 -15
14 -32 25 -39 25 -13 0 -117 108 -150 156 -11 16 -22 40 -25 54 -5 23 -9 25
-74 28 -39 2 -74 -2 -80 -8 -13 -13 -73 -13 -81 0 -3 5 -28 10 -55 10 -27 0
-52 5 -55 10 -3 6 -20 10 -36 10 -17 0 -32 6 -35 15 -4 8 -17 15 -29 15 -13 0
-25 5 -27 10 -2 6 -14 12 -27 15 -31 6 -71 43 -71 66 0 9 -7 22 -15 29 -19 16
-19 34 0 50 8 7 15 21 15 31 0 11 7 19 16 19 8 0 32 16 52 35 20 19 47 35 58
35 12 0 24 6 27 13 3 8 23 14 48 15 24 1 48 7 53 12 6 6 65 10 135 10 l126 0
13 27 c6 15 12 32 12 39 0 6 7 17 15 24 8 7 15 20 15 29 0 10 11 28 25 41 14
13 25 28 25 33 0 16 113 127 130 127 8 0 30 14 48 30 32 30 32 30 32 127 1 70
5 104 15 117 8 11 15 37 15 57 0 21 5 41 10 44 6 3 10 17 10 29 0 13 7 29 15
36 8 7 15 20 15 28 0 9 19 36 42 59 36 37 48 43 84 43 23 0 56 -8 73 -17z"/>
</g>
</svg>
